<?xml version="1.0" encoding="UTF-8" standalone="no"?>
<!DOCTYPE svg PUBLIC "-//W3C//DTD SVG 1.1//EN" "http://www.w3.org/Graphics/SVG/1.1/DTD/svg11.dtd">
<svg width="100%" height="100%" viewBox="0 0 150 80" version="1.1" xmlns="http://www.w3.org/2000/svg" xmlns:xlink="http://www.w3.org/1999/xlink" xml:space="preserve" xmlns:serif="http://www.serif.com/" style="fill-rule:evenodd;clip-rule:evenodd;stroke-linejoin:round;stroke-miterlimit:2;">
    <path d="M73.955,76.037C74.162,76.422 74.563,76.662 75,76.662C75.437,76.662 75.838,76.422 76.045,76.037C78.072,72.26 82.343,64.302 82.343,64.302C80.017,65.005 77.552,65.382 75,65.382C72.448,65.382 69.983,65.005 67.657,64.302C67.657,64.302 71.928,72.26 73.955,76.037ZM99.743,66.221C100.161,66.347 100.615,66.233 100.924,65.924C101.233,65.615 101.347,65.161 101.221,64.743C99.983,60.638 97.375,51.987 97.375,51.987C95.011,56.387 91.387,60.011 86.987,62.375C86.987,62.375 95.638,64.983 99.743,66.221ZM52.625,51.987C52.625,51.987 50.017,60.638 48.779,64.743C48.653,65.161 48.767,65.615 49.076,65.924C49.385,66.233 49.839,66.347 50.257,66.221C54.362,64.983 63.013,62.375 63.013,62.375C58.613,60.011 54.989,56.387 52.625,51.987ZM75,18.522C86.854,18.522 96.478,28.146 96.478,40C96.478,51.854 86.854,61.478 75,61.478C63.146,61.478 53.522,51.854 53.522,40C53.522,28.146 63.146,18.522 75,18.522ZM50.698,32.657C50.698,32.657 42.74,36.928 38.963,38.955C38.578,39.162 38.338,39.563 38.338,40C38.338,40.437 38.578,40.838 38.963,41.045C42.74,43.072 50.698,47.343 50.698,47.343C49.995,45.017 49.618,42.552 49.618,40C49.618,37.448 49.995,34.983 50.698,32.657ZM111.037,41.045C111.422,40.838 111.662,40.437 111.662,40C111.662,39.563 111.422,39.162 111.037,38.955C107.26,36.928 99.302,32.657 99.302,32.657C100.005,34.983 100.382,37.448 100.382,40C100.382,42.552 100.005,45.017 99.302,47.343C99.302,47.343 107.26,43.072 111.037,41.045ZM63.013,17.625C63.013,17.625 54.362,15.017 50.257,13.779C49.839,13.653 49.385,13.767 49.076,14.076C48.767,14.385 48.653,14.839 48.779,15.257C50.017,19.362 52.625,28.013 52.625,28.013C54.989,23.613 58.613,19.989 63.013,17.625ZM97.375,28.013C97.375,28.013 99.983,19.362 101.221,15.257C101.347,14.839 101.233,14.385 100.924,14.076C100.615,13.767 100.161,13.653 99.743,13.779C95.638,15.017 86.987,17.625 86.987,17.625C91.387,19.989 95.011,23.613 97.375,28.013ZM82.343,15.698C82.343,15.698 78.072,7.74 76.045,3.963C75.838,3.578 75.437,3.338 75,3.338C74.563,3.338 74.162,3.578 73.955,3.963C71.928,7.74 67.657,15.698 67.657,15.698C69.983,14.995 72.448,14.618 75,14.618C77.552,14.618 80.017,14.995 82.343,15.698Z" style="fill:rgb(255,129,50);"/>
</svg>
