<?xml version="1.0" encoding="UTF-8" standalone="no"?>
<!DOCTYPE svg PUBLIC "-//W3C//DTD SVG 1.1//EN" "http://www.w3.org/Graphics/SVG/1.1/DTD/svg11.dtd">
<svg width="100%" height="100%" viewBox="0 0 150 80" version="1.1" xmlns="http://www.w3.org/2000/svg" xmlns:xlink="http://www.w3.org/1999/xlink" xml:space="preserve" xmlns:serif="http://www.serif.com/" style="fill-rule:evenodd;clip-rule:evenodd;stroke-linejoin:round;stroke-miterlimit:2;">
    <path d="M89.238,33.986L93.048,36.031C94.658,36.895 95.662,38.574 95.662,40.401C95.662,42.228 94.658,43.907 93.048,44.771L79.966,51.792C79.917,51.818 79.869,51.843 79.819,51.867C79.757,52.02 79.694,52.173 79.628,52.327C79.646,52.377 79.662,52.427 79.678,52.479C79.678,52.479 82.633,62.281 83.965,66.699C84.492,68.448 84.015,70.346 82.723,71.638C81.432,72.929 79.534,73.406 77.785,72.879L75.872,72.302C78.615,74.424 82.055,75.686 85.788,75.686L123.643,75.686C132.071,75.686 138.914,68.843 138.914,60.415C138.914,51.986 132.071,45.143 123.643,45.143L122.837,45.143L122.837,44.621C122.837,34.42 114.555,26.137 104.354,26.137C98.11,26.137 92.585,29.24 89.238,33.986Z" style="fill:rgb(190,190,190);"/>
    <path d="M50.442,80.177C50.649,80.562 51.05,80.802 51.487,80.802C51.923,80.802 52.325,80.562 52.531,80.177C54.713,76.112 59.553,67.095 59.553,67.095C56.998,67.867 54.29,68.282 51.487,68.282C48.683,68.282 45.976,67.867 43.421,67.095C43.421,67.095 48.261,76.112 50.442,80.177ZM26.909,53.568C26.909,53.568 23.954,63.37 22.622,67.788C22.496,68.206 22.61,68.66 22.919,68.969C23.228,69.278 23.681,69.392 24.099,69.266C28.517,67.934 38.32,64.979 38.32,64.979C33.487,62.382 29.506,58.401 26.909,53.568ZM78.874,69.266C79.292,69.392 79.746,69.278 80.055,68.969C80.363,68.66 80.477,68.206 80.351,67.788C79.02,63.37 76.064,53.568 76.064,53.568C73.468,58.401 69.487,62.382 64.654,64.979C64.654,64.979 74.456,67.934 78.874,69.266ZM51.487,16.809C64.508,16.809 75.079,27.38 75.079,40.401C75.079,53.422 64.508,63.993 51.487,63.993C38.466,63.993 27.895,53.422 27.895,40.401C27.895,27.38 38.466,16.809 51.487,16.809ZM24.792,32.335C24.792,32.335 15.775,37.175 11.711,39.356C11.326,39.563 11.086,39.964 11.086,40.401C11.086,40.838 11.326,41.239 11.711,41.446C15.775,43.627 24.792,48.467 24.792,48.467C24.021,45.912 23.606,43.205 23.606,40.401C23.606,37.597 24.021,34.89 24.792,32.335ZM91.263,41.446C91.648,41.239 91.888,40.838 91.888,40.401C91.888,39.964 91.648,39.563 91.263,39.356C87.198,37.175 78.181,32.335 78.181,32.335C78.953,34.89 79.368,37.597 79.368,40.401C79.368,43.205 78.953,45.912 78.181,48.467C78.181,48.467 87.198,43.627 91.263,41.446ZM38.32,15.823C38.32,15.823 28.517,12.868 24.099,11.536C23.681,11.41 23.228,11.524 22.919,11.833C22.61,12.142 22.496,12.596 22.622,13.014C23.954,17.432 26.909,27.234 26.909,27.234C29.506,22.401 33.487,18.42 38.32,15.823ZM76.064,27.234C76.064,27.234 79.02,17.432 80.351,13.014C80.477,12.596 80.363,12.142 80.055,11.833C79.746,11.524 79.292,11.41 78.874,11.536C74.456,12.868 64.654,15.823 64.654,15.823C69.487,18.42 73.468,22.401 76.064,27.234ZM59.553,13.707C59.553,13.707 54.713,4.69 52.531,0.625C52.325,0.24 51.923,-0 51.487,-0C51.05,-0 50.649,0.24 50.442,0.625C48.261,4.69 43.421,13.707 43.421,13.707C45.976,12.935 48.683,12.52 51.487,12.52C54.29,12.52 56.998,12.935 59.553,13.707Z" style="fill:rgb(255,129,50);"/>
</svg>
