<?xml version="1.0" encoding="UTF-8" standalone="no"?>
<!DOCTYPE svg PUBLIC "-//W3C//DTD SVG 1.1//EN" "http://www.w3.org/Graphics/SVG/1.1/DTD/svg11.dtd">
<svg width="100%" height="100%" viewBox="0 0 150 80" version="1.1" xmlns="http://www.w3.org/2000/svg" xmlns:xlink="http://www.w3.org/1999/xlink" xml:space="preserve" xmlns:serif="http://www.serif.com/" style="fill-rule:evenodd;clip-rule:evenodd;stroke-linejoin:round;stroke-miterlimit:2;">
    <g transform="matrix(0.922918,0,0,0.922918,-3.63623,9.84724)">
        <g transform="matrix(1.08352,0,0,1.08352,3.93993,-10.6697)">
            <path d="M84.125,31.242C84.488,22.752 91.495,15.97 100.074,15.97C108.885,15.97 116.038,23.123 116.038,31.934C116.038,35.523 114.851,38.838 112.847,41.506C117.432,45.228 120.365,50.908 120.365,57.267C120.365,68.466 111.273,77.558 100.074,77.558C93.509,77.558 87.667,74.433 83.957,69.589C84.241,68.664 84.254,67.659 83.965,66.699L80.078,53.807C80.218,52.998 80.405,52.205 80.637,51.432L93.048,44.771C94.658,43.907 95.662,42.228 95.662,40.401C95.662,38.574 94.658,36.895 93.048,36.031L84.125,31.242Z" style="fill:white;"/>
        </g>
        <g transform="matrix(1.08352,0,0,1.08352,3.93993,-10.6697)">
            <path d="M81.771,29.979C82.748,20.738 90.576,13.528 100.074,13.528C110.233,13.528 118.48,21.775 118.48,31.934C118.48,35.267 117.592,38.394 116.041,41.092C120.217,45.214 122.807,50.941 122.807,57.267C122.807,69.814 112.621,80 100.074,80C93.041,80 86.749,76.799 82.579,71.776C82.628,71.731 82.676,71.685 82.723,71.638C84.015,70.346 84.492,68.448 83.965,66.699C82.633,62.281 79.678,52.479 79.678,52.479C79.662,52.427 79.646,52.377 79.628,52.327C79.694,52.173 79.757,52.02 79.819,51.867C79.869,51.843 79.917,51.818 79.966,51.792L83.923,49.669C83.438,50.696 83.049,51.776 82.766,52.899C82.413,54.297 82.226,55.761 82.226,57.267C82.226,67.118 90.224,75.116 100.074,75.116C109.925,75.116 117.922,67.118 117.922,57.267C117.922,51.673 115.342,46.676 111.308,43.402C110.289,42.575 110.106,41.09 110.894,40.04C112.591,37.78 113.596,34.973 113.596,31.934C113.596,24.471 107.537,18.412 100.074,18.412C92.611,18.412 86.553,24.471 86.553,31.934C86.553,32.141 86.557,32.347 86.567,32.552L81.771,29.979Z" style="fill:rgb(80,192,233);"/>
        </g>
        <g transform="matrix(4.46593e-16,1.1493,-1.1493,4.46593e-16,181.995,-62.8703)">
            <path d="M94.262,44.109C94.262,44.109 101.336,37.035 104.874,33.498C105.772,32.599 105.772,31.14 104.874,30.241C103.975,29.343 102.516,29.343 101.618,30.241C98.08,33.779 91.006,40.853 91.006,40.853C90.107,41.752 90.107,43.211 91.006,44.109C91.904,45.008 93.363,45.008 94.262,44.109Z" style="fill:rgb(80,192,233);"/>
        </g>
        <g transform="matrix(1.1493,0,0,1.1493,28.1889,-5.97201)">
            <g transform="matrix(-1.38187,0,0,1.38187,122.833,-13.3403)">
                <circle cx="32.425" cy="26.862" r="1.447" style="fill:rgb(80,192,233);"/>
            </g>
            <g transform="matrix(-1.38187,0,0,1.38187,113.276,-13.3403)">
                <circle cx="32.425" cy="26.862" r="1.447" style="fill:rgb(80,192,233);"/>
            </g>
        </g>
    </g>
    <path d="M50.442,80.177C50.649,80.562 51.05,80.802 51.487,80.802C51.923,80.802 52.325,80.562 52.531,80.177C54.713,76.112 59.553,67.095 59.553,67.095C56.998,67.867 54.29,68.282 51.487,68.282C48.683,68.282 45.976,67.867 43.421,67.095C43.421,67.095 48.261,76.112 50.442,80.177ZM26.909,53.568C26.909,53.568 23.954,63.37 22.622,67.788C22.496,68.206 22.61,68.66 22.919,68.969C23.228,69.278 23.681,69.392 24.099,69.266C28.517,67.934 38.32,64.979 38.32,64.979C33.487,62.382 29.506,58.401 26.909,53.568ZM78.874,69.266C79.292,69.392 79.746,69.278 80.055,68.969C80.363,68.66 80.477,68.206 80.351,67.788C79.02,63.37 76.064,53.568 76.064,53.568C73.468,58.401 69.487,62.382 64.654,64.979C64.654,64.979 74.456,67.934 78.874,69.266ZM51.487,16.809C64.508,16.809 75.079,27.38 75.079,40.401C75.079,53.422 64.508,63.993 51.487,63.993C38.466,63.993 27.895,53.422 27.895,40.401C27.895,27.38 38.466,16.809 51.487,16.809ZM24.792,32.335C24.792,32.335 15.775,37.175 11.711,39.356C11.326,39.563 11.086,39.964 11.086,40.401C11.086,40.838 11.326,41.239 11.711,41.446C15.775,43.627 24.792,48.467 24.792,48.467C24.021,45.912 23.606,43.205 23.606,40.401C23.606,37.597 24.021,34.89 24.792,32.335ZM91.263,41.446C91.648,41.239 91.888,40.838 91.888,40.401C91.888,39.964 91.648,39.563 91.263,39.356C87.198,37.175 78.181,32.335 78.181,32.335C78.953,34.89 79.368,37.597 79.368,40.401C79.368,43.205 78.953,45.912 78.181,48.467C78.181,48.467 87.198,43.627 91.263,41.446ZM38.32,15.823C38.32,15.823 28.517,12.868 24.099,11.536C23.681,11.41 23.228,11.524 22.919,11.833C22.61,12.142 22.496,12.596 22.622,13.014C23.954,17.432 26.909,27.234 26.909,27.234C29.506,22.401 33.487,18.42 38.32,15.823ZM76.064,27.234C76.064,27.234 79.02,17.432 80.351,13.014C80.477,12.596 80.363,12.142 80.055,11.833C79.746,11.524 79.292,11.41 78.874,11.536C74.456,12.868 64.654,15.823 64.654,15.823C69.487,18.42 73.468,22.401 76.064,27.234ZM59.553,13.707C59.553,13.707 54.713,4.69 52.531,0.625C52.325,0.24 51.923,-0 51.487,-0C51.05,-0 50.649,0.24 50.442,0.625C48.261,4.69 43.421,13.707 43.421,13.707C45.976,12.935 48.683,12.52 51.487,12.52C54.29,12.52 56.998,12.935 59.553,13.707Z" style="fill:rgb(255,129,50);"/>
</svg>
