<?xml version="1.0" encoding="UTF-8" standalone="no"?>
<!DOCTYPE svg PUBLIC "-//W3C//DTD SVG 1.1//EN" "http://www.w3.org/Graphics/SVG/1.1/DTD/svg11.dtd">
<svg width="100%" height="100%" viewBox="0 0 150 80" version="1.1" xmlns="http://www.w3.org/2000/svg" xmlns:xlink="http://www.w3.org/1999/xlink" xml:space="preserve" xmlns:serif="http://www.serif.com/" style="fill-rule:evenodd;clip-rule:evenodd;stroke-linejoin:round;stroke-miterlimit:2;">
    <path d="M111.878,11.41L111.878,11.104C111.878,9.409 113.254,8.033 114.949,8.033C116.644,8.033 118.021,9.409 118.021,11.104L118.021,11.411C133.915,12.804 142.843,25.015 147.494,39.251C145.979,36.864 141.879,35.151 137.063,35.151C130.962,35.151 126.008,37.901 126.008,41.289C126.008,38.492 122.631,36.129 118.021,35.391L118.021,62.425C118.021,68.674 112.966,71.967 107.757,71.967C102.548,71.967 97.493,68.674 97.493,62.425L97.493,60.967C97.496,58.288 100.565,58.395 100.565,58.395C100.565,58.395 103.633,58.289 103.636,60.967L103.636,60.976L103.636,62.425C103.636,64.807 105.771,65.824 107.757,65.824C109.742,65.824 111.878,64.807 111.878,62.425L111.878,35.392C107.27,36.132 103.897,38.493 103.897,41.289C103.897,37.901 98.943,35.151 92.842,35.151C87.99,35.151 83.865,36.889 82.377,39.305C87.016,25.039 95.975,12.802 111.878,11.41Z" style="fill:rgb(74,122,254);"/>
    <path d="M32.262,72.552C32.469,72.937 32.87,73.177 33.307,73.177C33.744,73.177 34.145,72.937 34.352,72.552C36.234,69.045 40.001,62.025 40.001,62.025C37.881,62.666 35.634,63.01 33.307,63.01C30.98,63.01 28.733,62.666 26.613,62.025C26.613,62.025 30.38,69.045 32.262,72.552ZM12.908,50.798C12.908,50.798 10.608,58.429 9.459,62.241C9.333,62.659 9.447,63.113 9.755,63.421C10.064,63.73 10.518,63.844 10.936,63.718C14.748,62.569 22.379,60.268 22.379,60.268C18.368,58.113 15.064,54.809 12.908,50.798ZM55.678,63.718C56.096,63.844 56.55,63.73 56.859,63.421C57.167,63.113 57.281,62.659 57.155,62.241C56.006,58.429 53.706,50.798 53.706,50.798C51.551,54.809 48.247,58.113 44.235,60.268C44.235,60.268 51.866,62.569 55.678,63.718ZM33.307,20.289C44.114,20.289 52.888,29.063 52.888,39.87C52.888,50.677 44.114,59.45 33.307,59.45C22.5,59.45 13.726,50.677 13.726,39.87C13.726,29.063 22.5,20.289 33.307,20.289ZM11.151,33.175C11.151,33.175 4.132,36.943 0.625,38.825C0.24,39.032 0,39.433 0,39.87C0,40.306 0.24,40.708 0.625,40.914C4.132,42.796 11.151,46.564 11.151,46.564C10.511,44.444 10.167,42.197 10.167,39.87C10.167,37.543 10.511,35.295 11.151,33.175ZM65.989,40.914C66.374,40.708 66.614,40.306 66.614,39.87C66.614,39.433 66.374,39.032 65.989,38.825C62.482,36.943 55.463,33.175 55.463,33.175C56.103,35.295 56.447,37.543 56.447,39.87C56.447,42.197 56.103,44.444 55.463,46.564C55.463,46.564 62.482,42.796 65.989,40.914ZM22.379,19.471C22.379,19.471 14.748,17.17 10.936,16.021C10.518,15.895 10.064,16.009 9.755,16.318C9.447,16.627 9.333,17.08 9.459,17.499C10.608,21.31 12.908,28.941 12.908,28.941C15.063,24.93 18.367,21.626 22.379,19.471ZM53.706,28.941C53.706,28.941 56.006,21.31 57.155,17.499C57.281,17.08 57.167,16.627 56.859,16.318C56.55,16.009 56.096,15.895 55.678,16.021C51.866,17.17 44.235,19.471 44.235,19.471C48.246,21.626 51.55,24.93 53.706,28.941ZM40.001,17.714C40.001,17.714 36.234,10.695 34.352,7.188C34.145,6.803 33.744,6.563 33.307,6.563C32.87,6.563 32.469,6.803 32.262,7.188C30.38,10.695 26.613,17.714 26.613,17.714C28.733,17.073 30.98,16.729 33.307,16.729C35.634,16.729 37.881,17.073 40.001,17.714Z" style="fill:rgb(255,129,50);"/>
    <g transform="matrix(0.631758,0,0,1,30.336,14.5836)">
        <path d="M45.884,59.994L45.884,49.641L95.511,59.994L45.884,59.994Z" style="fill:rgb(81,81,81);"/>
    </g>
</svg>
