<?xml version="1.0" encoding="UTF-8" standalone="no"?>
<!DOCTYPE svg PUBLIC "-//W3C//DTD SVG 1.1//EN" "http://www.w3.org/Graphics/SVG/1.1/DTD/svg11.dtd">
<svg width="100%" height="100%" viewBox="0 0 150 80" version="1.1" xmlns="http://www.w3.org/2000/svg" xmlns:xlink="http://www.w3.org/1999/xlink" xml:space="preserve" xmlns:serif="http://www.serif.com/" style="fill-rule:evenodd;clip-rule:evenodd;stroke-linejoin:round;stroke-miterlimit:2;">
    <g transform="matrix(0.922918,0,0,0.922918,11.3957,5.08328)">
        <g transform="matrix(1.1493,0,0,1.1493,26.1748,-5.97201)">
            <path d="M62.958,35.043C61.069,32.527 59.95,29.403 59.95,26.019C59.95,17.712 66.694,10.969 75,10.969C83.306,10.969 90.05,17.712 90.05,26.019C90.05,29.403 88.931,32.527 87.042,35.043C91.365,38.552 94.129,43.907 94.129,49.902C94.129,60.46 85.558,69.031 75,69.031C64.442,69.031 55.871,60.46 55.871,49.902C55.871,43.907 58.635,38.552 62.958,35.043Z" style="fill:white;"/>
        </g>
        <g transform="matrix(1.1493,0,0,1.1493,26.1748,-5.97201)">
            <path d="M59.947,34.652C56.01,38.539 53.569,43.938 53.569,49.902C53.569,61.731 63.172,71.334 75,71.334C86.828,71.334 96.431,61.731 96.431,49.902C96.431,43.938 93.99,38.539 90.053,34.652C91.516,32.109 92.353,29.161 92.353,26.019C92.353,16.442 84.577,8.666 75,8.666C65.423,8.666 57.647,16.442 57.647,26.019C57.647,29.161 58.484,32.109 59.947,34.652ZM64.409,36.831C65.37,36.051 65.542,34.651 64.799,33.661C63.2,31.53 62.252,28.884 62.252,26.019C62.252,18.983 67.964,13.271 75,13.271C82.036,13.271 87.748,18.983 87.748,26.019C87.748,28.884 86.8,31.53 85.201,33.661C84.458,34.651 84.63,36.051 85.591,36.831C89.394,39.917 91.827,44.628 91.827,49.902C91.827,59.189 84.287,66.729 75,66.729C65.713,66.729 58.173,59.189 58.173,49.902C58.173,44.628 60.606,39.917 64.409,36.831Z" style="fill:rgb(80,192,233);"/>
        </g>
        <g transform="matrix(4.46593e-16,1.1493,-1.1493,4.46593e-16,181.995,-62.8703)">
            <path d="M94.262,44.109C94.262,44.109 101.336,37.035 104.874,33.498C105.772,32.599 105.772,31.14 104.874,30.241C103.975,29.343 102.516,29.343 101.618,30.241C98.08,33.779 91.006,40.853 91.006,40.853C90.107,41.752 90.107,43.211 91.006,44.109C91.904,45.008 93.363,45.008 94.262,44.109Z" style="fill:rgb(80,192,233);"/>
        </g>
        <g transform="matrix(1.1493,-3.76219e-16,3.76219e-16,1.1493,-27.0874,6.96624)">
            <path d="M94.262,44.109L104.874,33.498C105.772,32.599 105.772,31.14 104.874,30.241C103.975,29.343 102.516,29.343 101.618,30.241L91.006,40.853C90.107,41.752 90.107,43.211 91.006,44.109C91.904,45.008 93.363,45.008 94.262,44.109Z" style="fill:rgb(80,192,233);"/>
        </g>
        <g transform="matrix(1.1493,0,0,1.1493,28.1889,-5.97201)">
            <g transform="matrix(-1.38187,0,0,1.38187,122.833,-13.3403)">
                <circle cx="32.425" cy="26.862" r="1.447" style="fill:rgb(80,192,233);"/>
            </g>
            <g transform="matrix(-1.38187,0,0,1.38187,113.276,-13.3403)">
                <circle cx="32.425" cy="26.862" r="1.447" style="fill:rgb(80,192,233);"/>
            </g>
        </g>
    </g>
    <path d="M32.262,72.552C32.469,72.937 32.87,73.177 33.307,73.177C33.744,73.177 34.145,72.937 34.352,72.552C36.234,69.045 40.001,62.025 40.001,62.025C37.881,62.666 35.634,63.01 33.307,63.01C30.98,63.01 28.733,62.666 26.613,62.025C26.613,62.025 30.38,69.045 32.262,72.552ZM12.908,50.798C12.908,50.798 10.608,58.429 9.459,62.241C9.333,62.659 9.447,63.113 9.755,63.421C10.064,63.73 10.518,63.844 10.936,63.718C14.748,62.569 22.379,60.268 22.379,60.268C18.368,58.113 15.064,54.809 12.908,50.798ZM55.678,63.718C56.096,63.844 56.55,63.73 56.859,63.421C57.167,63.113 57.281,62.659 57.155,62.241C56.006,58.429 53.706,50.798 53.706,50.798C51.551,54.809 48.247,58.113 44.235,60.268C44.235,60.268 51.866,62.569 55.678,63.718ZM33.307,20.289C44.114,20.289 52.888,29.063 52.888,39.87C52.888,50.677 44.114,59.45 33.307,59.45C22.5,59.45 13.726,50.677 13.726,39.87C13.726,29.063 22.5,20.289 33.307,20.289ZM11.151,33.175C11.151,33.175 4.132,36.943 0.625,38.825C0.24,39.032 0,39.433 0,39.87C0,40.306 0.24,40.708 0.625,40.914C4.132,42.796 11.151,46.564 11.151,46.564C10.511,44.444 10.167,42.197 10.167,39.87C10.167,37.543 10.511,35.295 11.151,33.175ZM65.989,40.914C66.374,40.708 66.614,40.306 66.614,39.87C66.614,39.433 66.374,39.032 65.989,38.825C62.482,36.943 55.463,33.175 55.463,33.175C56.103,35.295 56.447,37.543 56.447,39.87C56.447,42.197 56.103,44.444 55.463,46.564C55.463,46.564 62.482,42.796 65.989,40.914ZM22.379,19.471C22.379,19.471 14.748,17.17 10.936,16.021C10.518,15.895 10.064,16.009 9.755,16.318C9.447,16.627 9.333,17.08 9.459,17.499C10.608,21.31 12.908,28.941 12.908,28.941C15.063,24.93 18.367,21.626 22.379,19.471ZM53.706,28.941C53.706,28.941 56.006,21.31 57.155,17.499C57.281,17.08 57.167,16.627 56.859,16.318C56.55,16.009 56.096,15.895 55.678,16.021C51.866,17.17 44.235,19.471 44.235,19.471C48.246,21.626 51.55,24.93 53.706,28.941ZM40.001,17.714C40.001,17.714 36.234,10.695 34.352,7.188C34.145,6.803 33.744,6.563 33.307,6.563C32.87,6.563 32.469,6.803 32.262,7.188C30.38,10.695 26.613,17.714 26.613,17.714C28.733,17.073 30.98,16.729 33.307,16.729C35.634,16.729 37.881,17.073 40.001,17.714Z" style="fill:rgb(255,129,50);"/>
    <g transform="matrix(0.631758,0,0,1,30.336,14.5836)">
        <path d="M45.884,59.994L45.884,49.641L95.511,59.994L45.884,59.994Z" style="fill:rgb(81,81,81);"/>
    </g>
</svg>
