<?xml version="1.0" encoding="UTF-8" standalone="no"?>
<!DOCTYPE svg PUBLIC "-//W3C//DTD SVG 1.1//EN" "http://www.w3.org/Graphics/SVG/1.1/DTD/svg11.dtd">
<svg width="100%" height="100%" viewBox="0 0 150 80" version="1.1" xmlns="http://www.w3.org/2000/svg" xmlns:xlink="http://www.w3.org/1999/xlink" xml:space="preserve" xmlns:serif="http://www.serif.com/" style="fill-rule:evenodd;clip-rule:evenodd;stroke-linejoin:round;stroke-miterlimit:2;">
    <path d="M101.325,76.933C101.531,77.318 101.933,77.558 102.369,77.558C102.806,77.558 103.207,77.318 103.414,76.933C105.251,73.509 108.869,66.768 108.869,66.768C106.811,67.39 104.629,67.725 102.369,67.725C100.11,67.725 97.928,67.39 95.869,66.768C95.869,66.768 99.487,73.509 101.325,76.933ZM124.03,68.394C124.448,68.52 124.902,68.406 125.21,68.097C125.519,67.788 125.633,67.334 125.507,66.916C124.385,63.195 122.176,55.867 122.176,55.867C120.083,59.762 116.875,62.97 112.981,65.062C112.981,65.062 120.309,67.272 124.03,68.394ZM88.167,32.622C91.65,28.709 96.724,26.244 102.369,26.244C112.863,26.244 121.382,34.763 121.382,45.256C121.382,55.749 112.863,64.268 102.369,64.268C99.821,64.268 97.388,63.766 95.167,62.854C97.517,59.465 98.895,55.353 98.895,50.921C98.895,43.066 94.567,36.214 88.167,32.622ZM134.046,46.3C134.431,46.094 134.671,45.693 134.671,45.256C134.671,44.819 134.431,44.418 134.046,44.211C130.623,42.374 123.882,38.756 123.882,38.756C124.504,40.814 124.838,42.996 124.838,45.256C124.838,47.515 124.504,49.697 123.882,51.756C123.882,51.756 130.623,48.138 134.046,46.3ZM122.176,34.645C122.176,34.645 124.385,27.317 125.507,23.595C125.633,23.177 125.519,22.724 125.21,22.415C124.902,22.106 124.448,21.992 124.03,22.118C120.309,23.24 112.981,25.449 112.981,25.449C116.875,27.542 120.083,30.75 122.176,34.645ZM81.226,30.212L79.232,23.595C79.106,23.177 79.22,22.724 79.529,22.415C79.837,22.106 80.291,21.992 80.709,22.118C84.43,23.24 91.758,25.449 91.758,25.449C89.106,26.874 86.773,28.816 84.893,31.14C83.716,30.725 82.49,30.412 81.226,30.212ZM108.869,23.743C108.869,23.743 105.251,17.002 103.414,13.579C103.207,13.194 102.806,12.954 102.369,12.954C101.933,12.954 101.531,13.194 101.325,13.579C99.487,17.002 95.869,23.743 95.869,23.743C97.928,23.121 100.11,22.787 102.369,22.787C104.629,22.787 106.811,23.121 108.869,23.743Z" style="fill:rgb(255,129,50);"/>
    <g transform="matrix(1.06028,0,0,1.06028,-23.9012,-2.41111)">
        <path d="M55.152,31.663L55.005,31.663C45.294,31.663 37.41,39.547 37.41,49.258C37.41,58.969 45.294,66.853 55.005,66.853L96.037,66.853C105.173,66.853 112.59,59.436 112.59,50.3C112.59,41.165 105.173,33.748 96.037,33.748L95.164,33.748L95.164,33.181C95.164,22.124 86.187,13.147 75.129,13.147C64.583,13.147 55.929,21.313 55.152,31.663Z" style="fill:rgb(190,190,190);"/>
    </g>
</svg>
