<?xml version="1.0" encoding="UTF-8" standalone="no"?>
<!DOCTYPE svg PUBLIC "-//W3C//DTD SVG 1.1//EN" "http://www.w3.org/Graphics/SVG/1.1/DTD/svg11.dtd">
<svg width="100%" height="100%" viewBox="0 0 150 80" version="1.1" xmlns="http://www.w3.org/2000/svg" xmlns:xlink="http://www.w3.org/1999/xlink" xml:space="preserve" xmlns:serif="http://www.serif.com/" style="fill-rule:evenodd;clip-rule:evenodd;stroke-linejoin:round;stroke-miterlimit:2;">
    <path d="M99.055,17.364L99.055,17.058C99.055,15.362 100.431,13.986 102.126,13.986C103.822,13.986 105.198,15.362 105.198,17.058L105.198,17.364C121.092,18.758 130.02,30.969 134.671,45.205C133.156,42.817 129.056,41.104 124.24,41.104C118.139,41.104 113.185,43.854 113.185,47.242C113.185,44.445 109.809,42.083 105.198,41.344L105.198,68.378C105.198,74.627 100.143,77.921 94.934,77.921C90.411,77.921 86.005,75.438 84.922,70.694C87.067,69.933 89.053,68.834 90.813,67.459L90.813,68.378C90.813,70.76 92.948,71.778 94.934,71.778C96.92,71.778 99.055,70.76 99.055,68.378L99.055,41.345C98.276,41.47 97.533,41.642 96.835,41.853C93.773,35.485 87.588,30.898 80.272,30.083C80.154,28.993 79.964,27.924 79.708,26.879C84.565,21.646 90.896,18.077 99.055,17.364Z" style="fill:rgb(74,122,254);"/>
    <g transform="matrix(1.06028,0,0,1.06028,-23.9012,-2.41111)">
        <path d="M55.152,31.663L55.005,31.663C45.294,31.663 37.41,39.547 37.41,49.258C37.41,58.969 45.294,66.853 55.005,66.853L96.037,66.853C105.173,66.853 112.59,59.436 112.59,50.3C112.59,41.165 105.173,33.748 96.037,33.748L95.164,33.748L95.164,33.181C95.164,22.124 86.187,13.147 75.129,13.147C64.583,13.147 55.929,21.313 55.152,31.663Z" style="fill:rgb(190,190,190);"/>
    </g>
</svg>
