<?xml version="1.0" encoding="UTF-8" standalone="no"?>
<!DOCTYPE svg PUBLIC "-//W3C//DTD SVG 1.1//EN" "http://www.w3.org/Graphics/SVG/1.1/DTD/svg11.dtd">
<svg width="100%" height="100%" viewBox="0 0 150 80" version="1.1" xmlns="http://www.w3.org/2000/svg" xmlns:xlink="http://www.w3.org/1999/xlink" xml:space="preserve" xmlns:serif="http://www.serif.com/" style="fill-rule:evenodd;clip-rule:evenodd;stroke-linejoin:round;stroke-miterlimit:2;">
    <g>
        <g transform="matrix(4.12044e-16,1.06039,-1.06039,4.12044e-16,164.321,-48.1383)">
            <path d="M94.262,44.109C94.262,44.109 101.336,37.035 104.874,33.498C105.772,32.599 105.772,31.14 104.874,30.241C103.975,29.343 102.516,29.343 101.618,30.241C98.08,33.779 91.006,40.853 91.006,40.853C90.107,41.752 90.107,43.211 91.006,44.109C91.904,45.008 93.363,45.008 94.262,44.109Z" style="fill:rgb(80,192,233);"/>
        </g>
        <path d="M84.165,30.814C84.748,22.535 91.657,15.989 100.084,15.989C108.892,15.989 116.043,23.14 116.043,31.948C116.043,35.537 114.856,38.85 112.853,41.518C117.437,45.238 120.368,50.917 120.368,57.274C120.368,68.47 111.279,77.559 100.084,77.559C94.069,77.559 88.662,74.935 84.947,70.771C93.117,67.876 98.976,60.078 98.976,50.921C98.976,41.475 92.741,33.474 84.165,30.814Z" style="fill:white;"/>
        <path d="M81.764,30.222C82.635,20.875 90.511,13.548 100.084,13.548C110.24,13.548 118.485,21.793 118.485,31.948C118.485,35.28 117.597,38.406 116.046,41.103C120.221,45.225 122.81,50.95 122.81,57.274C122.81,69.817 112.627,80 100.084,80C92.925,80 86.534,76.682 82.367,71.501C84.113,71.126 85.779,70.533 87.336,69.753C90.577,73.063 95.092,75.117 100.084,75.117C109.932,75.117 117.927,67.122 117.927,57.274C117.927,51.681 115.347,46.686 111.315,43.414C110.296,42.586 110.113,41.102 110.901,40.052C112.597,37.793 113.602,34.987 113.602,31.948C113.602,24.488 107.545,18.431 100.084,18.431C92.698,18.431 86.688,24.367 86.569,31.725C85.054,31.041 83.444,30.532 81.764,30.222Z" style="fill:rgb(80,192,233);"/>
        <g transform="matrix(1.06039,4.37906e-47,-4.37906e-47,1.06039,22.4132,4.35837)">
            <g transform="matrix(-1.38187,0,0,1.38187,122.833,-13.3403)">
                <circle cx="32.425" cy="26.862" r="1.447" style="fill:rgb(80,192,233);"/>
            </g>
            <g transform="matrix(-1.38187,0,0,1.38187,113.276,-13.3403)">
                <circle cx="32.425" cy="26.862" r="1.447" style="fill:rgb(80,192,233);"/>
            </g>
        </g>
    </g>
    <g transform="matrix(1.06028,0,0,1.06028,-23.9012,-2.41111)">
        <path d="M55.152,31.663L55.005,31.663C45.294,31.663 37.41,39.547 37.41,49.258C37.41,58.969 45.294,66.853 55.005,66.853L96.037,66.853C105.173,66.853 112.59,59.436 112.59,50.3C112.59,41.165 105.173,33.748 96.037,33.748L95.164,33.748L95.164,33.181C95.164,22.124 86.187,13.147 75.129,13.147C64.583,13.147 55.929,21.313 55.152,31.663Z" style="fill:rgb(190,190,190);"/>
    </g>
</svg>
