<?xml version="1.0" encoding="UTF-8" standalone="no"?>
<!DOCTYPE svg PUBLIC "-//W3C//DTD SVG 1.1//EN" "http://www.w3.org/Graphics/SVG/1.1/DTD/svg11.dtd">
<svg width="100%" height="100%" viewBox="0 0 150 80" version="1.1" xmlns="http://www.w3.org/2000/svg" xmlns:xlink="http://www.w3.org/1999/xlink" xml:space="preserve" xmlns:serif="http://www.serif.com/" style="fill-rule:evenodd;clip-rule:evenodd;stroke-linejoin:round;stroke-miterlimit:2;">
    <path d="M110.617,76.037C110.824,76.422 111.225,76.662 111.662,76.662C112.098,76.662 112.5,76.422 112.706,76.037C114.734,72.26 119.005,64.302 119.005,64.302C116.679,65.005 114.214,65.382 111.662,65.382C109.109,65.382 106.644,65.005 104.319,64.302C104.319,64.302 108.59,72.26 110.617,76.037ZM89.287,51.987C89.287,51.987 86.679,60.638 85.441,64.743C85.315,65.161 85.429,65.615 85.738,65.924C86.047,66.233 86.5,66.347 86.918,66.221C91.024,64.983 99.675,62.375 99.675,62.375C95.275,60.011 91.651,56.387 89.287,51.987ZM136.405,66.221C136.823,66.347 137.277,66.233 137.586,65.924C137.894,65.615 138.008,65.161 137.882,64.743C136.645,60.638 134.037,51.987 134.037,51.987C131.673,56.387 128.049,60.011 123.649,62.375C123.649,62.375 132.3,64.983 136.405,66.221ZM111.662,18.522C123.516,18.522 133.139,28.146 133.139,40C133.139,51.854 123.516,61.478 111.662,61.478C99.808,61.478 90.184,51.854 90.184,40C90.184,28.146 99.808,18.522 111.662,18.522ZM87.36,32.657C87.36,32.657 79.402,36.928 75.625,38.955C75.24,39.162 75,39.563 75,40C75,40.437 75.24,40.838 75.625,41.045C79.402,43.072 87.36,47.343 87.36,47.343C86.657,45.017 86.28,42.552 86.28,40C86.28,37.448 86.657,34.983 87.36,32.657ZM147.699,41.045C148.083,40.838 148.324,40.437 148.324,40C148.324,39.563 148.083,39.162 147.699,38.955C143.921,36.928 135.964,32.657 135.964,32.657C136.666,34.983 137.044,37.448 137.044,40C137.044,42.552 136.666,45.017 135.964,47.343C135.964,47.343 143.921,43.072 147.699,41.045ZM99.675,17.625C99.675,17.625 91.024,15.017 86.918,13.779C86.5,13.653 86.047,13.767 85.738,14.076C85.429,14.385 85.315,14.839 85.441,15.257C86.679,19.362 89.287,28.013 89.287,28.013C91.651,23.613 95.275,19.989 99.675,17.625ZM134.037,28.013C134.037,28.013 136.645,19.362 137.882,15.257C138.008,14.839 137.894,14.385 137.586,14.076C137.277,13.767 136.823,13.653 136.405,13.779C132.3,15.017 123.649,17.625 123.649,17.625C128.049,19.989 131.673,23.613 134.037,28.013ZM119.005,15.698C119.005,15.698 114.734,7.74 112.706,3.963C112.5,3.578 112.098,3.338 111.662,3.338C111.225,3.338 110.824,3.578 110.617,3.963C108.59,7.74 104.319,15.698 104.319,15.698C106.644,14.995 109.109,14.618 111.662,14.618C114.214,14.618 116.679,14.995 119.005,15.698Z" style="fill:rgb(255,129,50);"/>
    <g transform="matrix(0.631758,0,0,1,30.336,14.5836)">
        <path d="M45.884,59.994L45.884,49.641L95.511,59.994L45.884,59.994Z" style="fill:rgb(81,81,81);"/>
    </g>
    <g transform="matrix(0.876462,0,0,0.876462,-31.0561,6.23014)">
        <path d="M55.152,31.663L55.005,31.663C45.294,31.663 37.41,39.547 37.41,49.258C37.41,58.969 45.294,66.853 55.005,66.853L96.037,66.853C105.173,66.853 112.59,59.436 112.59,50.3C112.59,41.165 105.173,33.748 96.037,33.748L95.164,33.748L95.164,33.181C95.164,22.124 86.187,13.147 75.129,13.147C64.583,13.147 55.929,21.313 55.152,31.663Z" style="fill:rgb(190,190,190);"/>
    </g>
</svg>
