<?xml version="1.0" encoding="UTF-8" standalone="no"?>
<!DOCTYPE svg PUBLIC "-//W3C//DTD SVG 1.1//EN" "http://www.w3.org/Graphics/SVG/1.1/DTD/svg11.dtd">
<svg width="100%" height="100%" viewBox="0 0 150 80" version="1.1" xmlns="http://www.w3.org/2000/svg" xmlns:xlink="http://www.w3.org/1999/xlink" xml:space="preserve" xmlns:serif="http://www.serif.com/" style="fill-rule:evenodd;clip-rule:evenodd;stroke-linejoin:round;stroke-miterlimit:2;">
    <path d="M111.862,11.41L111.862,11.104C111.862,9.409 113.239,8.033 114.934,8.033C116.629,8.033 118.006,9.409 118.006,11.104L118.006,11.411C133.9,12.804 142.828,25.015 147.479,39.251C145.964,36.864 141.864,35.151 137.048,35.151C130.947,35.151 125.993,37.901 125.993,41.289C125.993,38.492 122.616,36.129 118.006,35.391L118.006,62.425C118.006,68.674 112.951,71.967 107.742,71.967C102.533,71.967 97.478,68.674 97.478,62.425L97.478,60.967C97.481,58.288 100.55,58.395 100.55,58.395C100.55,58.395 103.618,58.289 103.621,60.967L103.621,60.976L103.621,62.425C103.621,64.807 105.756,65.824 107.742,65.824C109.727,65.824 111.862,64.807 111.862,62.425L111.862,35.392C107.255,36.132 103.882,38.493 103.882,41.289C103.882,37.901 98.928,35.151 92.827,35.151C87.975,35.151 83.85,36.889 82.362,39.305C87.001,25.039 95.96,12.802 111.862,11.41Z" style="fill:rgb(74,122,254);"/>
    <g transform="matrix(0.876462,0,0,0.876462,-31.0561,6.23014)">
        <path d="M55.152,31.663L55.005,31.663C45.294,31.663 37.41,39.547 37.41,49.258C37.41,58.969 45.294,66.853 55.005,66.853L96.037,66.853C105.173,66.853 112.59,59.436 112.59,50.3C112.59,41.165 105.173,33.748 96.037,33.748L95.164,33.748L95.164,33.181C95.164,22.124 86.187,13.147 75.129,13.147C64.583,13.147 55.929,21.313 55.152,31.663Z" style="fill:rgb(190,190,190);"/>
    </g>
    <g transform="matrix(0.631758,0,0,1,30.336,14.5836)">
        <path d="M45.884,59.994L45.884,49.641L95.511,59.994L45.884,59.994Z" style="fill:rgb(81,81,81);"/>
    </g>
</svg>
