<?xml version="1.0" encoding="UTF-8" standalone="no"?>
<!DOCTYPE svg PUBLIC "-//W3C//DTD SVG 1.1//EN" "http://www.w3.org/Graphics/SVG/1.1/DTD/svg11.dtd">
<svg width="100%" height="100%" viewBox="0 0 150 80" version="1.1" xmlns="http://www.w3.org/2000/svg" xmlns:xlink="http://www.w3.org/1999/xlink" xml:space="preserve" xmlns:serif="http://www.serif.com/" style="fill-rule:evenodd;clip-rule:evenodd;stroke-linejoin:round;stroke-miterlimit:2;">
    <path d="M71.694,9.094L71.694,8.764C71.694,6.931 73.182,5.443 75.014,5.443C76.847,5.443 78.335,6.931 78.335,8.764L78.335,9.095C95.516,10.601 105.168,23.801 110.196,39.191C108.558,36.61 104.125,34.758 98.92,34.758C92.324,34.758 86.969,37.731 86.969,41.393C86.969,38.37 83.319,35.816 78.335,35.017L78.335,64.241C78.335,70.996 72.871,74.557 67.239,74.557C61.608,74.557 56.144,70.996 56.144,64.241L56.144,62.666C56.148,59.769 59.465,59.885 59.465,59.885C59.465,59.885 62.781,59.77 62.785,62.666L62.785,62.675L62.785,64.241C62.785,66.816 65.093,67.916 67.239,67.916C69.386,67.916 71.694,66.816 71.694,64.241L71.694,35.018C66.713,35.819 63.067,38.371 63.067,41.393C63.067,37.731 57.712,34.758 51.116,34.758C45.872,34.758 41.412,36.637 39.804,39.249C44.818,23.828 54.503,10.599 71.694,9.094Z" style="fill:rgb(74,122,254);"/>
</svg>
