<?xml version="1.0" encoding="UTF-8" standalone="no"?>
<!DOCTYPE svg PUBLIC "-//W3C//DTD SVG 1.1//EN" "http://www.w3.org/Graphics/SVG/1.1/DTD/svg11.dtd">
<svg width="100%" height="100%" viewBox="0 0 150 80" version="1.1" xmlns="http://www.w3.org/2000/svg" xmlns:xlink="http://www.w3.org/1999/xlink" xml:space="preserve" xmlns:serif="http://www.serif.com/" style="fill-rule:evenodd;clip-rule:evenodd;stroke-linejoin:round;stroke-miterlimit:2;">
    <path d="M96.501,76.933C96.708,77.318 97.109,77.558 97.546,77.558C97.983,77.558 98.384,77.318 98.59,76.933C100.428,73.509 104.046,66.768 104.046,66.768C101.987,67.39 99.805,67.725 97.546,67.725C95.286,67.725 93.104,67.39 91.046,66.768C91.046,66.768 94.664,73.509 96.501,76.933ZM77.739,55.867C77.739,55.867 75.53,63.195 74.408,66.916C74.282,67.334 74.396,67.788 74.705,68.097C75.014,68.406 75.467,68.52 75.885,68.394C79.607,67.272 86.935,65.062 86.935,65.062C83.04,62.97 79.832,59.762 77.739,55.867ZM119.206,68.394C119.624,68.52 120.078,68.406 120.387,68.097C120.696,67.788 120.81,67.334 120.684,66.916C119.562,63.195 117.352,55.867 117.352,55.867C115.26,59.762 112.052,62.97 108.157,65.062C108.157,65.062 115.485,67.272 119.206,68.394ZM88.19,28.705C90.954,27.138 94.146,26.244 97.546,26.244C108.039,26.244 116.558,34.763 116.558,45.256C116.558,55.749 108.039,64.268 97.546,64.268C87.053,64.268 78.534,55.749 78.534,45.256C78.534,42.955 78.943,40.749 79.694,38.706C81.095,38.821 82.39,39.114 83.492,39.555C84.521,39.967 85.385,40.45 85.814,41.126C86.76,42.616 88.666,43.17 90.262,42.417C91.858,41.665 92.645,39.842 92.096,38.164C91.021,34.873 89.727,31.691 88.19,28.705ZM76.016,38.814L75.89,38.833L70.771,41.58C70.623,43.377 69.118,44.789 67.283,44.789C66.687,44.789 66.126,44.64 65.635,44.377C65.389,44.598 65.244,44.916 65.244,45.256C65.244,45.693 65.484,46.094 65.869,46.3C69.292,48.138 76.033,51.756 76.033,51.756C75.411,49.697 75.077,47.515 75.077,45.256C75.077,43.018 75.405,40.856 76.016,38.814ZM129.223,46.3C129.608,46.094 129.848,45.693 129.848,45.256C129.848,44.819 129.608,44.418 129.223,44.211C125.799,42.374 119.058,38.756 119.058,38.756C119.68,40.814 120.015,42.996 120.015,45.256C120.015,47.515 119.68,49.697 119.058,51.756C119.058,51.756 125.799,48.138 129.223,46.3ZM117.352,34.645C117.352,34.645 119.562,27.317 120.684,23.595C120.81,23.177 120.696,22.724 120.387,22.415C120.078,22.106 119.624,21.992 119.206,22.118C115.485,23.24 108.157,25.449 108.157,25.449C112.052,27.542 115.26,30.75 117.352,34.645ZM104.046,23.743C104.046,23.743 100.428,17.002 98.59,13.579C98.384,13.194 97.983,12.954 97.546,12.954C97.109,12.954 96.708,13.194 96.501,13.579C94.664,17.002 91.046,23.743 91.046,23.743C93.104,23.121 95.286,22.787 97.546,22.787C99.805,22.787 101.987,23.121 104.046,23.743Z" style="fill:rgb(255,129,50);"/>
    <g transform="matrix(1,0,0,1,2.28364,0)">
        <path d="M50.869,11.41L50.869,11.104C50.869,9.409 52.246,8.033 53.941,8.033C55.636,8.033 57.012,9.409 57.012,11.104L57.012,11.411C72.906,12.804 81.834,25.015 86.486,39.251C84.971,36.864 80.87,35.151 76.055,35.151C69.953,35.151 65,37.901 65,41.289C65,38.492 61.623,36.129 57.012,35.391L57.012,62.425C57.012,68.674 51.958,71.967 46.749,71.967C41.539,71.967 36.485,68.674 36.485,62.425L36.485,60.967C36.488,58.288 39.556,58.395 39.556,58.395C39.556,58.395 42.624,58.289 42.628,60.967L42.628,60.976L42.628,62.425C42.628,64.807 44.763,65.824 46.749,65.824C48.734,65.824 50.869,64.807 50.869,62.425L50.869,35.392C46.261,36.132 42.889,38.493 42.889,41.289C42.889,37.901 37.935,35.151 31.833,35.151C26.982,35.151 22.856,36.889 21.369,39.305C26.007,25.039 34.966,12.802 50.869,11.41Z" style="fill:rgb(74,122,254);"/>
    </g>
</svg>
