<?xml version="1.0" encoding="UTF-8" standalone="no"?>
<!DOCTYPE svg PUBLIC "-//W3C//DTD SVG 1.1//EN" "http://www.w3.org/Graphics/SVG/1.1/DTD/svg11.dtd">
<svg width="100%" height="100%" viewBox="0 0 150 80" version="1.1" xmlns="http://www.w3.org/2000/svg" xmlns:xlink="http://www.w3.org/1999/xlink" xml:space="preserve" xmlns:serif="http://www.serif.com/" style="fill-rule:evenodd;clip-rule:evenodd;stroke-linejoin:round;stroke-miterlimit:2;">
    <path d="M85.63,28.176C87.289,31.313 88.674,34.677 89.813,38.164C90.361,39.842 89.575,41.665 87.979,42.417C86.383,43.17 84.476,42.616 83.531,41.126C83.101,40.45 82.237,39.967 81.208,39.555C79.889,39.028 78.296,38.711 76.572,38.659C76.078,40.107 75.759,41.636 75.64,43.22L75.504,43.22C68.753,43.22 62.958,47.351 60.512,53.222L60.512,62.425C60.512,63.358 60.431,64.244 60.275,65.082C62.566,71.27 68.523,75.686 75.504,75.686L113.36,75.686C121.788,75.686 128.631,68.843 128.631,60.415C128.631,51.986 121.788,45.143 113.36,45.143L112.554,45.143L112.554,44.621C112.554,34.42 104.272,26.137 94.071,26.137C91.031,26.137 88.162,26.873 85.63,28.176Z" style="fill:rgb(190,190,190);"/>
    <path d="M50.869,11.41L50.869,11.104C50.869,9.409 52.246,8.033 53.941,8.033C55.636,8.033 57.012,9.409 57.012,11.104L57.012,11.411C72.906,12.804 81.834,25.015 86.486,39.251C84.971,36.864 80.87,35.151 76.055,35.151C69.953,35.151 65,37.901 65,41.289C65,38.492 61.623,36.129 57.012,35.391L57.012,62.425C57.012,68.674 51.958,71.967 46.749,71.967C41.539,71.967 36.485,68.674 36.485,62.425L36.485,60.967C36.488,58.288 39.556,58.395 39.556,58.395C39.556,58.395 42.624,58.289 42.628,60.967L42.628,60.976L42.628,62.425C42.628,64.807 44.763,65.824 46.749,65.824C48.734,65.824 50.869,64.807 50.869,62.425L50.869,35.392C46.261,36.132 42.889,38.493 42.889,41.289C42.889,37.901 37.935,35.151 31.833,35.151C26.982,35.151 22.856,36.889 21.369,39.305C26.007,25.039 34.966,12.802 50.869,11.41Z" style="fill:rgb(74,122,254);"/>
</svg>
