<?xml version="1.0" encoding="UTF-8" standalone="no"?>
<!DOCTYPE svg PUBLIC "-//W3C//DTD SVG 1.1//EN" "http://www.w3.org/Graphics/SVG/1.1/DTD/svg11.dtd">
<svg width="100%" height="100%" viewBox="0 0 150 80" version="1.1" xmlns="http://www.w3.org/2000/svg" xmlns:xlink="http://www.w3.org/1999/xlink" xml:space="preserve" xmlns:serif="http://www.serif.com/" style="fill-rule:evenodd;clip-rule:evenodd;stroke-linejoin:round;stroke-miterlimit:2;">
    <g>
        <path d="M85.553,24.156C88.209,20.272 92.675,17.721 97.732,17.721C105.871,17.721 112.479,24.329 112.479,32.468C112.479,35.784 111.382,38.845 109.531,41.311C113.767,44.748 116.475,49.995 116.475,55.87C116.475,66.215 108.077,74.614 97.732,74.614C87.387,74.614 78.988,66.215 78.988,55.87C78.988,49.995 81.697,44.748 85.933,41.311C85.812,41.15 85.695,40.987 85.581,40.822C85.669,40.919 85.747,41.02 85.814,41.126C86.76,42.616 88.666,43.17 90.262,42.417C91.858,41.665 92.645,39.842 92.096,38.164C90.454,33.137 88.3,28.365 85.553,24.156Z" style="fill:white;"/>
        <path d="M84.193,22.187C87.3,18.103 92.21,15.465 97.732,15.465C107.116,15.465 114.735,23.084 114.735,32.468C114.735,35.547 113.915,38.435 112.481,40.928C116.339,44.736 118.731,50.026 118.731,55.87C118.731,67.46 109.322,76.87 97.732,76.87C86.142,76.87 76.732,67.46 76.732,55.87C76.732,50.026 79.124,44.736 82.983,40.928C82.644,40.338 82.339,39.727 82.072,39.096C82.573,39.224 83.048,39.378 83.492,39.555C84.521,39.967 85.385,40.45 85.814,41.126C86.284,41.866 86.991,42.375 87.779,42.608C87.662,42.775 87.52,42.928 87.354,43.062C83.628,46.086 81.244,50.702 81.244,55.87C81.244,64.97 88.632,72.358 97.732,72.358C106.832,72.358 114.219,64.97 114.219,55.87C114.219,50.702 111.836,46.086 108.109,43.062C107.168,42.298 106.999,40.926 107.727,39.956C109.294,37.869 110.223,35.276 110.223,32.468C110.223,25.574 104.626,19.977 97.732,19.977C93.082,19.977 89.022,22.523 86.872,26.297C86.041,24.869 85.15,23.496 84.193,22.187Z" style="fill:rgb(80,192,233);"/>
        <g transform="matrix(3.80747e-16,0.979846,-0.979846,3.80747e-16,157.09,-41.5356)">
            <path d="M94.262,44.109C94.262,44.109 101.336,37.035 104.874,33.498C105.772,32.599 105.772,31.14 104.874,30.241C103.975,29.343 102.516,29.343 101.618,30.241C98.08,33.779 91.006,40.853 91.006,40.853C90.107,41.752 90.107,43.211 91.006,44.109C91.904,45.008 93.363,45.008 94.262,44.109Z" style="fill:rgb(80,192,233);"/>
        </g>
        <g transform="matrix(0.979846,-3.20748e-16,3.20748e-16,0.979846,-21.1657,18.0042)">
            <path d="M94.262,44.109L104.874,33.498C105.772,32.599 105.772,31.14 104.874,30.241C103.975,29.343 102.516,29.343 101.618,30.241L91.006,40.853C90.107,41.752 90.107,43.211 91.006,44.109C91.904,45.008 93.363,45.008 94.262,44.109Z" style="fill:rgb(80,192,233);"/>
        </g>
        <g transform="matrix(0.979846,0,0,0.979846,25.9606,6.97361)">
            <g transform="matrix(-1.38187,0,0,1.38187,122.833,-13.3403)">
                <circle cx="32.425" cy="26.862" r="1.447" style="fill:rgb(80,192,233);"/>
            </g>
            <g transform="matrix(-1.38187,0,0,1.38187,113.276,-13.3403)">
                <circle cx="32.425" cy="26.862" r="1.447" style="fill:rgb(80,192,233);"/>
            </g>
        </g>
    </g>
    <g transform="matrix(1,0,0,1,2.28364,0)">
        <path d="M50.869,11.41L50.869,11.104C50.869,9.409 52.246,8.033 53.941,8.033C55.636,8.033 57.012,9.409 57.012,11.104L57.012,11.411C72.906,12.804 81.834,25.015 86.486,39.251C84.971,36.864 80.87,35.151 76.055,35.151C69.953,35.151 65,37.901 65,41.289C65,38.492 61.623,36.129 57.012,35.391L57.012,62.425C57.012,68.674 51.958,71.967 46.749,71.967C41.539,71.967 36.485,68.674 36.485,62.425L36.485,60.967C36.488,58.288 39.556,58.395 39.556,58.395C39.556,58.395 42.624,58.289 42.628,60.967L42.628,60.976L42.628,62.425C42.628,64.807 44.763,65.824 46.749,65.824C48.734,65.824 50.869,64.807 50.869,62.425L50.869,35.392C46.261,36.132 42.889,38.493 42.889,41.289C42.889,37.901 37.935,35.151 31.833,35.151C26.982,35.151 22.856,36.889 21.369,39.305C26.007,25.039 34.966,12.802 50.869,11.41Z" style="fill:rgb(74,122,254);"/>
    </g>
</svg>
