<?xml version="1.0" encoding="UTF-8" standalone="no"?>
<!DOCTYPE svg PUBLIC "-//W3C//DTD SVG 1.1//EN" "http://www.w3.org/Graphics/SVG/1.1/DTD/svg11.dtd">
<svg width="100%" height="100%" viewBox="0 0 150 80" version="1.1" xmlns="http://www.w3.org/2000/svg" xmlns:xlink="http://www.w3.org/1999/xlink" xml:space="preserve" xmlns:serif="http://www.serif.com/" style="fill-rule:evenodd;clip-rule:evenodd;stroke-linejoin:round;stroke-miterlimit:2;">
    <path d="M31.044,11.41L31.044,11.104C31.044,9.409 32.42,8.033 34.115,8.033C35.81,8.033 37.187,9.409 37.187,11.104L37.187,11.411C53.081,12.804 62.009,25.015 66.66,39.251C65.145,36.864 61.045,35.151 56.229,35.151C50.128,35.151 45.174,37.901 45.174,41.289C45.174,38.492 41.797,36.129 37.187,35.391L37.187,62.425C37.187,68.674 32.132,71.967 26.923,71.967C21.714,71.967 16.659,68.674 16.659,62.425L16.659,60.967C16.662,58.288 19.731,58.395 19.731,58.395C19.731,58.395 22.799,58.289 22.802,60.967L22.802,60.976L22.802,62.425C22.802,64.807 24.937,65.824 26.923,65.824C28.908,65.824 31.044,64.807 31.044,62.425L31.044,35.392C26.436,36.132 23.063,38.493 23.063,41.289C23.063,37.901 18.109,35.151 12.008,35.151C7.156,35.151 3.031,36.889 1.543,39.305C6.182,25.039 15.141,12.802 31.044,11.41Z" style="fill:rgb(74,122,254);"/>
    <g transform="matrix(0.922577,0,0,0.922577,42.4798,4.38555)">
        <path d="M55.152,31.663L55.005,31.663C45.294,31.663 37.41,39.547 37.41,49.258C37.41,58.969 45.294,66.853 55.005,66.853L96.037,66.853C105.173,66.853 112.59,59.436 112.59,50.3C112.59,41.165 105.173,33.748 96.037,33.748L95.164,33.748L95.164,33.181C95.164,22.124 86.187,13.147 75.129,13.147C64.583,13.147 55.929,21.313 55.152,31.663Z" style="fill:rgb(190,190,190);"/>
    </g>
    <g transform="matrix(0.631758,0,0,1,30.336,14.5836)">
        <path d="M45.884,59.994L45.884,49.641L95.511,59.994L45.884,59.994Z" style="fill:rgb(81,81,81);"/>
    </g>
</svg>
