<?xml version="1.0" encoding="UTF-8" standalone="no"?>
<!DOCTYPE svg PUBLIC "-//W3C//DTD SVG 1.1//EN" "http://www.w3.org/Graphics/SVG/1.1/DTD/svg11.dtd">
<svg width="100%" height="100%" viewBox="0 0 150 80" version="1.1" xmlns="http://www.w3.org/2000/svg" xmlns:xlink="http://www.w3.org/1999/xlink" xml:space="preserve" xmlns:serif="http://www.serif.com/" style="fill-rule:evenodd;clip-rule:evenodd;stroke-linejoin:round;stroke-miterlimit:2;">
    <g transform="matrix(1.1493,0,0,1.1493,-11.1975,-5.97201)">
        <path d="M62.958,35.043C61.069,32.527 59.95,29.403 59.95,26.019C59.95,17.712 66.694,10.969 75,10.969C83.306,10.969 90.05,17.712 90.05,26.019C90.05,29.403 88.931,32.527 87.042,35.043C91.365,38.552 94.129,43.907 94.129,49.902C94.129,60.46 85.558,69.031 75,69.031C64.442,69.031 55.871,60.46 55.871,49.902C55.871,43.907 58.635,38.552 62.958,35.043Z" style="fill:white;"/>
    </g>
    <g transform="matrix(1.1493,0,0,1.1493,-11.1975,-5.97201)">
        <path d="M59.947,34.652C56.01,38.539 53.569,43.938 53.569,49.902C53.569,61.731 63.172,71.334 75,71.334C86.828,71.334 96.431,61.731 96.431,49.902C96.431,43.938 93.99,38.539 90.053,34.652C91.516,32.109 92.353,29.161 92.353,26.019C92.353,16.442 84.577,8.666 75,8.666C65.423,8.666 57.647,16.442 57.647,26.019C57.647,29.161 58.484,32.109 59.947,34.652ZM64.409,36.831C65.37,36.051 65.542,34.651 64.799,33.661C63.2,31.53 62.252,28.884 62.252,26.019C62.252,18.983 67.964,13.271 75,13.271C82.036,13.271 87.748,18.983 87.748,26.019C87.748,28.884 86.8,31.53 85.201,33.661C84.458,34.651 84.63,36.051 85.591,36.831C89.394,39.917 91.827,44.628 91.827,49.902C91.827,59.189 84.287,66.729 75,66.729C65.713,66.729 58.173,59.189 58.173,49.902C58.173,44.628 60.606,39.917 64.409,36.831Z" style="fill:rgb(80,192,233);"/>
    </g>
    <g transform="matrix(4.46593e-16,1.1493,-1.1493,4.46593e-16,144.623,-62.8703)">
        <path d="M94.262,44.109C94.262,44.109 101.336,37.035 104.874,33.498C105.772,32.599 105.772,31.14 104.874,30.241C103.975,29.343 102.516,29.343 101.618,30.241C98.08,33.779 91.006,40.853 91.006,40.853C90.107,41.752 90.107,43.211 91.006,44.109C91.904,45.008 93.363,45.008 94.262,44.109Z" style="fill:rgb(80,192,233);"/>
    </g>
    <g transform="matrix(1.1493,-3.76219e-16,3.76219e-16,1.1493,-64.4597,6.96624)">
        <path d="M94.262,44.109L104.874,33.498C105.772,32.599 105.772,31.14 104.874,30.241C103.975,29.343 102.516,29.343 101.618,30.241L91.006,40.853C90.107,41.752 90.107,43.211 91.006,44.109C91.904,45.008 93.363,45.008 94.262,44.109Z" style="fill:rgb(80,192,233);"/>
    </g>
    <g transform="matrix(1.1493,0,0,1.1493,-9.18339,-5.97201)">
        <g transform="matrix(-1.38187,0,0,1.38187,122.833,-13.3403)">
            <circle cx="32.425" cy="26.862" r="1.447" style="fill:rgb(80,192,233);"/>
        </g>
        <g transform="matrix(-1.38187,0,0,1.38187,113.276,-13.3403)">
            <circle cx="32.425" cy="26.862" r="1.447" style="fill:rgb(80,192,233);"/>
        </g>
    </g>
</svg>
