<?xml version="1.0" encoding="UTF-8" standalone="no"?>
<!DOCTYPE svg PUBLIC "-//W3C//DTD SVG 1.1//EN" "http://www.w3.org/Graphics/SVG/1.1/DTD/svg11.dtd">
<svg width="100%" height="100%" viewBox="0 0 150 80" version="1.1" xmlns="http://www.w3.org/2000/svg" xmlns:xlink="http://www.w3.org/1999/xlink" xml:space="preserve" xmlns:serif="http://www.serif.com/" style="fill-rule:evenodd;clip-rule:evenodd;stroke-linejoin:round;stroke-miterlimit:2;">
    <path d="M95.795,75.674C96.002,76.059 96.403,76.299 96.84,76.299C97.277,76.299 97.678,76.059 97.884,75.674C99.722,72.25 103.34,65.509 103.34,65.509C101.281,66.131 99.099,66.466 96.84,66.466C94.58,66.466 92.398,66.131 90.34,65.509C90.34,65.509 93.958,72.25 95.795,75.674ZM118.5,67.134C118.918,67.26 119.372,67.146 119.681,66.838C119.99,66.529 120.104,66.075 119.978,65.657C118.856,61.936 116.646,54.608 116.646,54.608C114.554,58.503 111.346,61.711 107.451,63.803C107.451,63.803 114.779,66.013 118.5,67.134ZM83.158,61.815C82.697,62.988 82.161,64.122 81.554,65.213L86.229,63.803C85.149,63.223 84.122,62.557 83.158,61.815ZM79.977,35.213C83.151,29.136 89.515,24.984 96.84,24.984C107.333,24.984 115.852,33.504 115.852,43.997C115.852,54.49 107.333,63.009 96.84,63.009C94.735,63.009 92.709,62.666 90.816,62.033C92.127,61.868 93.396,61.283 94.402,60.276C96.809,57.87 96.809,53.962 94.402,51.555L82.555,39.707C81.832,38.125 80.967,36.622 79.977,35.213ZM128.517,45.041C128.902,44.835 129.142,44.433 129.142,43.997C129.142,43.56 128.902,43.159 128.517,42.952C125.093,41.115 118.352,37.497 118.352,37.497C118.974,39.555 119.309,41.737 119.309,43.997C119.309,46.256 118.974,48.438 118.352,50.497C118.352,50.497 125.093,46.879 128.517,45.041ZM116.646,33.386C116.646,33.386 118.856,26.057 119.978,22.336C120.104,21.918 119.99,21.465 119.681,21.156C119.372,20.847 118.918,20.733 118.5,20.859C114.779,21.981 107.451,24.19 107.451,24.19C111.346,26.283 114.554,29.491 116.646,33.386ZM86.229,24.19L80.345,22.416C80.372,22.876 80.385,23.338 80.385,23.803C80.385,25.76 80.146,27.661 79.696,29.479L79.702,29.473C81.541,27.325 83.744,25.54 86.229,24.19ZM103.34,22.484C103.34,22.484 99.722,15.743 97.884,12.32C97.678,11.935 97.277,11.695 96.84,11.695C96.403,11.695 96.002,11.935 95.795,12.32C93.958,15.743 90.34,22.484 90.34,22.484C92.398,21.862 94.58,21.528 96.84,21.528C99.099,21.528 101.281,21.862 103.34,22.484Z" style="fill:rgb(255,129,50);"/>
    <g transform="matrix(1.00796,0,0,1.00796,-5.84068,-0.3185)">
        <g transform="matrix(1.1493,0,0,1.1493,-24.0684,-5.97201)">
            <path d="M62.958,35.043C61.069,32.527 59.95,29.403 59.95,26.019C59.95,17.712 66.694,10.969 75,10.969C83.306,10.969 90.05,17.712 90.05,26.019C90.05,29.403 88.931,32.527 87.042,35.043C91.365,38.552 94.129,43.907 94.129,49.902C94.129,60.46 85.558,69.031 75,69.031C64.442,69.031 55.871,60.46 55.871,49.902C55.871,43.907 58.635,38.552 62.958,35.043Z" style="fill:white;"/>
        </g>
        <g transform="matrix(1.1493,0,0,1.1493,-24.0684,-5.97201)">
            <path d="M59.947,34.652C56.01,38.539 53.569,43.938 53.569,49.902C53.569,61.731 63.172,71.334 75,71.334C86.828,71.334 96.431,61.731 96.431,49.902C96.431,43.938 93.99,38.539 90.053,34.652C91.516,32.109 92.353,29.161 92.353,26.019C92.353,16.442 84.577,8.666 75,8.666C65.423,8.666 57.647,16.442 57.647,26.019C57.647,29.161 58.484,32.109 59.947,34.652ZM64.409,36.831C65.37,36.051 65.542,34.651 64.799,33.661C63.2,31.53 62.252,28.884 62.252,26.019C62.252,18.983 67.964,13.271 75,13.271C82.036,13.271 87.748,18.983 87.748,26.019C87.748,28.884 86.8,31.53 85.201,33.661C84.458,34.651 84.63,36.051 85.591,36.831C89.394,39.917 91.827,44.628 91.827,49.902C91.827,59.189 84.287,66.729 75,66.729C65.713,66.729 58.173,59.189 58.173,49.902C58.173,44.628 60.606,39.917 64.409,36.831Z" style="fill:rgb(80,192,233);"/>
        </g>
        <g transform="matrix(4.46593e-16,1.1493,-1.1493,4.46593e-16,131.752,-62.8703)">
            <path d="M94.262,44.109C94.262,44.109 101.336,37.035 104.874,33.498C105.772,32.599 105.772,31.14 104.874,30.241C103.975,29.343 102.516,29.343 101.618,30.241C98.08,33.779 91.006,40.853 91.006,40.853C90.107,41.752 90.107,43.211 91.006,44.109C91.904,45.008 93.363,45.008 94.262,44.109Z" style="fill:rgb(80,192,233);"/>
        </g>
        <g transform="matrix(1.1493,-3.76219e-16,3.76219e-16,1.1493,-77.3306,6.96624)">
            <path d="M94.262,44.109L104.874,33.498C105.772,32.599 105.772,31.14 104.874,30.241C103.975,29.343 102.516,29.343 101.618,30.241L91.006,40.853C90.107,41.752 90.107,43.211 91.006,44.109C91.904,45.008 93.363,45.008 94.262,44.109Z" style="fill:rgb(80,192,233);"/>
        </g>
        <g transform="matrix(1.1493,0,0,1.1493,-22.0543,-5.97201)">
            <g transform="matrix(-1.38187,0,0,1.38187,122.833,-13.3403)">
                <circle cx="32.425" cy="26.862" r="1.447" style="fill:rgb(80,192,233);"/>
            </g>
            <g transform="matrix(-1.38187,0,0,1.38187,113.276,-13.3403)">
                <circle cx="32.425" cy="26.862" r="1.447" style="fill:rgb(80,192,233);"/>
            </g>
        </g>
    </g>
</svg>
