<?xml version="1.0" encoding="UTF-8" standalone="no"?>
<!DOCTYPE svg PUBLIC "-//W3C//DTD SVG 1.1//EN" "http://www.w3.org/Graphics/SVG/1.1/DTD/svg11.dtd">
<svg width="100%" height="100%" viewBox="0 0 150 80" version="1.1" xmlns="http://www.w3.org/2000/svg" xmlns:xlink="http://www.w3.org/1999/xlink" xml:space="preserve" xmlns:serif="http://www.serif.com/" style="fill-rule:evenodd;clip-rule:evenodd;stroke-linejoin:round;stroke-miterlimit:2;">
    <path d="M110.617,76.037C110.824,76.422 111.225,76.662 111.662,76.662C112.098,76.662 112.5,76.422 112.706,76.037C114.734,72.26 119.005,64.302 119.005,64.302C116.679,65.005 114.214,65.382 111.662,65.382C109.109,65.382 106.644,65.005 104.319,64.302C104.319,64.302 108.59,72.26 110.617,76.037ZM89.287,51.987C89.287,51.987 86.679,60.638 85.441,64.743C85.315,65.161 85.429,65.615 85.738,65.924C86.047,66.233 86.5,66.347 86.918,66.221C91.024,64.983 99.675,62.375 99.675,62.375C95.275,60.011 91.651,56.387 89.287,51.987ZM136.405,66.221C136.823,66.347 137.277,66.233 137.586,65.924C137.894,65.615 138.008,65.161 137.882,64.743C136.645,60.638 134.037,51.987 134.037,51.987C131.673,56.387 128.049,60.011 123.649,62.375C123.649,62.375 132.3,64.983 136.405,66.221ZM111.662,18.522C123.516,18.522 133.139,28.146 133.139,40C133.139,51.854 123.516,61.478 111.662,61.478C99.808,61.478 90.184,51.854 90.184,40C90.184,28.146 99.808,18.522 111.662,18.522ZM87.36,32.657C87.36,32.657 79.402,36.928 75.625,38.955C75.24,39.162 75,39.563 75,40C75,40.437 75.24,40.838 75.625,41.045C79.402,43.072 87.36,47.343 87.36,47.343C86.657,45.017 86.28,42.552 86.28,40C86.28,37.448 86.657,34.983 87.36,32.657ZM147.699,41.045C148.083,40.838 148.324,40.437 148.324,40C148.324,39.563 148.083,39.162 147.699,38.955C143.921,36.928 135.964,32.657 135.964,32.657C136.666,34.983 137.044,37.448 137.044,40C137.044,42.552 136.666,45.017 135.964,47.343C135.964,47.343 143.921,43.072 147.699,41.045ZM99.675,17.625C99.675,17.625 91.024,15.017 86.918,13.779C86.5,13.653 86.047,13.767 85.738,14.076C85.429,14.385 85.315,14.839 85.441,15.257C86.679,19.362 89.287,28.013 89.287,28.013C91.651,23.613 95.275,19.989 99.675,17.625ZM134.037,28.013C134.037,28.013 136.645,19.362 137.882,15.257C138.008,14.839 137.894,14.385 137.586,14.076C137.277,13.767 136.823,13.653 136.405,13.779C132.3,15.017 123.649,17.625 123.649,17.625C128.049,19.989 131.673,23.613 134.037,28.013ZM119.005,15.698C119.005,15.698 114.734,7.74 112.706,3.963C112.5,3.578 112.098,3.338 111.662,3.338C111.225,3.338 110.824,3.578 110.617,3.963C108.59,7.74 104.319,15.698 104.319,15.698C106.644,14.995 109.109,14.618 111.662,14.618C114.214,14.618 116.679,14.995 119.005,15.698Z" style="fill:rgb(255,129,50);"/>
    <g transform="matrix(0.922918,0,0,0.922918,-68.8166,5.08328)">
        <g transform="matrix(1.1493,0,0,1.1493,26.1748,-5.97201)">
            <path d="M62.958,35.043C61.069,32.527 59.95,29.403 59.95,26.019C59.95,17.712 66.694,10.969 75,10.969C83.306,10.969 90.05,17.712 90.05,26.019C90.05,29.403 88.931,32.527 87.042,35.043C91.365,38.552 94.129,43.907 94.129,49.902C94.129,60.46 85.558,69.031 75,69.031C64.442,69.031 55.871,60.46 55.871,49.902C55.871,43.907 58.635,38.552 62.958,35.043Z" style="fill:white;"/>
        </g>
        <g transform="matrix(1.1493,0,0,1.1493,26.1748,-5.97201)">
            <path d="M59.947,34.652C56.01,38.539 53.569,43.938 53.569,49.902C53.569,61.731 63.172,71.334 75,71.334C86.828,71.334 96.431,61.731 96.431,49.902C96.431,43.938 93.99,38.539 90.053,34.652C91.516,32.109 92.353,29.161 92.353,26.019C92.353,16.442 84.577,8.666 75,8.666C65.423,8.666 57.647,16.442 57.647,26.019C57.647,29.161 58.484,32.109 59.947,34.652ZM64.409,36.831C65.37,36.051 65.542,34.651 64.799,33.661C63.2,31.53 62.252,28.884 62.252,26.019C62.252,18.983 67.964,13.271 75,13.271C82.036,13.271 87.748,18.983 87.748,26.019C87.748,28.884 86.8,31.53 85.201,33.661C84.458,34.651 84.63,36.051 85.591,36.831C89.394,39.917 91.827,44.628 91.827,49.902C91.827,59.189 84.287,66.729 75,66.729C65.713,66.729 58.173,59.189 58.173,49.902C58.173,44.628 60.606,39.917 64.409,36.831Z" style="fill:rgb(80,192,233);"/>
        </g>
        <g transform="matrix(4.46593e-16,1.1493,-1.1493,4.46593e-16,181.995,-62.8703)">
            <path d="M94.262,44.109C94.262,44.109 101.336,37.035 104.874,33.498C105.772,32.599 105.772,31.14 104.874,30.241C103.975,29.343 102.516,29.343 101.618,30.241C98.08,33.779 91.006,40.853 91.006,40.853C90.107,41.752 90.107,43.211 91.006,44.109C91.904,45.008 93.363,45.008 94.262,44.109Z" style="fill:rgb(80,192,233);"/>
        </g>
        <g transform="matrix(1.1493,-3.76219e-16,3.76219e-16,1.1493,-27.0874,6.96624)">
            <path d="M94.262,44.109L104.874,33.498C105.772,32.599 105.772,31.14 104.874,30.241C103.975,29.343 102.516,29.343 101.618,30.241L91.006,40.853C90.107,41.752 90.107,43.211 91.006,44.109C91.904,45.008 93.363,45.008 94.262,44.109Z" style="fill:rgb(80,192,233);"/>
        </g>
        <g transform="matrix(1.1493,0,0,1.1493,28.1889,-5.97201)">
            <g transform="matrix(-1.38187,0,0,1.38187,122.833,-13.3403)">
                <circle cx="32.425" cy="26.862" r="1.447" style="fill:rgb(80,192,233);"/>
            </g>
            <g transform="matrix(-1.38187,0,0,1.38187,113.276,-13.3403)">
                <circle cx="32.425" cy="26.862" r="1.447" style="fill:rgb(80,192,233);"/>
            </g>
        </g>
    </g>
    <g transform="matrix(0.631758,0,0,1,30.336,14.5836)">
        <path d="M45.884,59.994L45.884,49.641L95.511,59.994L45.884,59.994Z" style="fill:rgb(81,81,81);"/>
    </g>
</svg>
