<?xml version="1.0" standalone="no"?>
<!DOCTYPE svg PUBLIC "-//W3C//DTD SVG 20010904//EN"
 "http://www.w3.org/TR/2001/REC-SVG-20010904/DTD/svg10.dtd">
<svg version="1.0" xmlns="http://www.w3.org/2000/svg"
 width="450.000000pt" height="450.000000pt" viewBox="0 0 450.000000 450.000000"
 preserveAspectRatio="xMidYMid meet">
<metadata>
Created by potrace 1.14, written by Peter Selinger 2001-2017
</metadata>
<g transform="translate(0.000000,450.000000) scale(0.100000,-0.100000)"
fill="#000000" stroke="none">
<path d="M1227 3569 c-13 -8 -17 -18 -12 -38 7 -31 -8 -38 -138 -66 -72 -16
-77 -19 -71 -39 4 -11 17 -35 30 -52 13 -17 24 -36 24 -42 0 -6 -22 -21 -50
-33 -82 -35 -82 -38 -3 -148 16 -22 16 -24 -3 -37 -10 -7 -23 -17 -29 -22 -5
-4 -18 -11 -27 -15 -10 -3 -18 -12 -18 -20 0 -16 29 -73 57 -113 l22 -30 -29
-11 c-44 -17 -62 -69 -62 -185 0 -62 -5 -98 -12 -101 -6 -2 -45 -5 -86 -6
-179 -5 -230 -33 -269 -152 -10 -33 -17 -37 -73 -53 -109 -30 -186 -100 -248
-226 -18 -36 -35 -72 -40 -80 -4 -8 -18 -17 -31 -20 -35 -8 -52 -54 -57 -152
-4 -87 7 -143 32 -160 13 -8 18 -118 6 -118 -5 0 -18 -16 -29 -36 -19 -31 -22
-52 -22 -141 0 -146 28 -189 138 -215 46 -11 55 -18 70 -48 46 -97 110 -133
238 -134 70 -1 86 3 133 28 45 25 101 87 114 127 3 8 677 15 828 10 21 -1 32
-12 55 -57 16 -30 42 -63 57 -72 15 -9 28 -19 28 -23 0 -18 72 -34 155 -34 73
0 98 4 131 22 44 24 87 73 110 128 8 19 18 35 22 36 4 0 200 1 435 2 l428 2
20 -40 c38 -75 120 -119 232 -124 105 -4 188 39 232 122 14 27 26 37 45 38 14
1 149 3 302 5 169 1 293 7 319 14 146 40 203 121 202 290 0 98 -12 139 -52
177 -10 10 -33 65 -51 123 -18 58 -38 112 -45 120 -7 8 -20 30 -30 48 -42 84
-198 211 -375 305 -41 22 -76 41 -78 42 -1 1 5 19 14 41 24 57 14 138 -22 175
-15 16 -37 32 -48 35 -12 4 -24 11 -27 16 -6 9 -92 12 -147 6 -21 -3 -31 11
-86 117 -34 66 -83 153 -109 194 -53 84 -144 191 -164 191 -7 0 -13 4 -13 9 0
5 -26 19 -57 31 -32 12 -62 25 -68 30 -23 19 -238 29 -590 26 -203 -2 -384 -6
-402 -10 -37 -8 -86 -33 -131 -65 -22 -15 -32 -18 -33 -9 0 7 -2 38 -3 68 -3
72 -43 146 -113 210 -67 61 -184 116 -288 135 -70 12 -221 15 -238 4z m1703
-471 c96 -18 220 -88 220 -124 0 -7 7 -17 15 -21 25 -14 69 -86 164 -268 35
-66 66 -124 70 -130 5 -5 10 -17 14 -26 4 -14 0 -15 -31 -9 -21 4 -44 10 -52
13 -35 14 -143 19 -427 22 l-301 3 -35 36 c-20 20 -39 50 -42 67 -24 109 -117
237 -183 254 -15 3 -114 9 -219 12 l-193 5 6 42 c11 73 46 104 139 126 50 12
794 10 855 -2z m1096 -1074 c19 -71 15 -187 -7 -210 -22 -21 -121 -22 -153 0
-32 20 -66 88 -66 131 0 17 13 55 28 85 23 45 36 59 81 82 l55 29 22 -28 c13
-15 30 -56 40 -89z m-1477 79 c53 -16 110 -61 144 -114 10 -14 18 -51 19 -85
3 -50 -1 -64 -20 -89 -46 -58 -187 -83 -284 -49 -39 13 -47 20 -52 48 -19 103
2 302 33 309 31 6 106 -3 160 -20z"/>
<path d="M3905 2057 c-71 -70 -86 -178 -19 -131 15 10 33 24 41 29 10 7 17 5
24 -7 12 -22 35 -23 43 -2 20 51 -4 154 -36 154 -6 0 -30 -19 -53 -43z"/>
<path d="M2427 2050 c-30 -24 -49 -79 -40 -121 6 -32 23 -36 57 -14 20 13 25
13 42 0 21 -16 64 -20 64 -6 0 20 35 21 62 1 37 -27 58 -26 58 4 0 39 -42 87
-105 123 -69 38 -102 41 -138 13z"/>
</g>
</svg>
