<!--?xml version="1.0" encoding="utf-8"?-->
<!-- Generator: Adobe Illustrator 24.1.1, SVG Export Plug-In . SVG Version: 6.00 Build 0)  -->
<svg version="1.1" id="_x31_0" xmlns="http://www.w3.org/2000/svg" xmlns:xlink="http://www.w3.org/1999/xlink" x="0px" y="0px" viewBox="0 0 512 512" style="width: 256px; height: 256px; opacity: 1;" xml:space="preserve">
<style type="text/css">
	.st0{fill:#374149;}
</style>
<g>
	<path class="st0" d="M470.599,251.389c-4.137-3.254-8.473-6.192-12.992-8.801c0,0,0.363-2.02,0.93-7.578
		c0.687-6.703,0.832-13.508-0.13-20.184c-1.8-12.519-6.058-22.523-11.828-33.621c-16.301-31.363-49.793-51.629-85.328-51.629
		c-4.989,0-10.008,0.402-14.922,1.183c-2.343,0.375-4.629,0.844-6.836,1.383c-4.656-7.887-10.144-15.586-16.867-22.821
		c-20.195-21.711-47.386-36.457-76.57-41.519c-7.574-1.317-15.316-1.981-23.015-1.981c-51.786-0.008-100.138,29.91-123.18,76.211
		c-7.262,14.598-11.813,30.172-13.52,46.297c-0.07,0.657-0.129,1.305-0.191,1.95c-6.668,2.398-13.324,5.343-20.012,9.207
		c-19.55,11.285-36.008,27.542-47.61,47.023c-26.301,44.172-24.469,100.047,4.66,142.34c18.387,26.692,47.47,57.329,109.7,57.329
		h265.391c10.39,0,24.195-0.622,38.867-5.458c24.102-7.934,44.84-24.102,58.379-45.515
		C524.931,348.706,513.978,285.537,470.599,251.389z M398.278,411.584c-16.574,0-138.278,0-211.11,0l223.086-223.09
		c2.082,2.723,4.015,5.574,5.625,8.668c6.481,12.465,8.547,27.141,5.676,40.898c-1.695,8.126-5.278,16.004-8.481,23.641h0.016
		l-0.062,0.164l13.695,4.578c8.125,2.715,15.754,6.836,22.477,12.129c29.488,23.207,37.21,66.317,17.086,98.141
		c-9.234,14.61-23.558,25.746-39.973,31.153C417.068,410.913,407.841,411.584,398.278,411.584z M120.746,191.974
		c1.27-11.992,4.711-23.73,10.086-34.527c17.434-35.035,53.802-57.032,92.204-57.032c5.675,0,11.398,0.481,17.11,1.473
		c21.804,3.782,42.074,14.793,57.141,30.996c11.648,12.524,18.582,27.504,24.906,43.153l0.008-0.004l0.07,0.156
		c9.558-4.519,18.946-9.578,29.52-11.266c3.156-0.504,6.316-0.75,9.461-0.75c16.789,0,32.984,7.023,44.539,19.004L177.383,411.584
		c-24.512,0-41.789,0-44.496,0c-41.676,0-62.895-15.77-81.203-42.359c-21.402-31.062-22.692-72.664-3.426-105.02
		c8.532-14.336,20.715-26.414,35.169-34.754c11.644-6.719,24.164-9.906,37.098-12.95
		C120.301,208.318,119.879,200.142,120.746,191.974z" style="fill: rgb(75, 75, 75);"></path>
</g>
</svg>
